<svg width="212" height="212" viewBox="0 0 212 212" fill="none" xmlns="http://www.w3.org/2000/svg"><path fill-rule="evenodd" clip-rule="evenodd" d="M49.9076 38.5H162.092C173.014 38.5 176.974 39.6371 180.966 41.7724C184.959 43.9076 188.092 47.041 190.228 51.0336C192.363 55.0262 193.5 58.9865 193.5 69.9076V142.092C193.5 153.013 192.363 156.974 190.228 160.966C188.092 164.959 184.959 168.092 180.966 170.228C176.974 172.363 173.014 173.5 162.092 173.5H49.9076C38.9865 173.5 35.0262 172.363 31.0336 170.228C27.041 168.092 23.9076 164.959 21.7724 160.966C19.6371 156.974 18.5 153.013 18.5 142.092V69.9076C18.5 58.9865 19.6371 55.0262 21.7724 51.0336C23.9076 47.041 27.041 43.9076 31.0336 41.7724C35.0262 39.6371 38.9865 38.5 49.9076 38.5Z" fill="#EEEEEE"/><path d="M86.5107 131.26C100.462 142.024 120.497 139.44 131.26 125.489C142.024 111.538 139.44 91.5026 125.489 80.7391C111.538 69.9756 91.5026 72.5596 80.7391 86.5107C69.9756 100.462 72.5596 120.497 86.5107 131.26Z" fill="#FF4B4B"/><path d="M86.5107 131.26C73.123 120.931 70.2028 102.065 79.5002 88.2295C74.577 95.4869 76.615 105.682 83.9341 110.517C91.2853 115.373 101.181 113.351 106.037 106C110.898 98.6652 120.797 96.6304 128.141 101.482C135.492 106.338 137.515 116.234 132.658 123.585C132.396 123.982 132.119 124.364 131.829 124.729C131.644 124.984 131.454 125.237 131.26 125.489C120.497 139.44 100.462 142.024 86.5107 131.26Z" fill="#1254A9"/><path d="M48.4591 93.6787C47.1677 92.595 46.9992 90.6697 48.0829 89.3783L68.2633 65.3282C69.3469 64.0368 71.2722 63.8684 72.5636 64.952C73.855 66.0356 74.0235 67.9609 72.9398 69.2523L52.7594 93.3024C51.6758 94.5938 49.7505 94.7623 48.4591 93.6787Z" fill="#4C4C4C"/><path d="M41.2218 87.6054C39.9304 86.5218 39.7619 84.5965 40.8455 83.3051L61.026 59.255C62.1096 57.9636 64.0349 57.7951 65.3263 58.8788C66.6177 59.9624 66.7862 61.8877 65.7025 63.1791L45.5221 87.2292C44.4385 88.5206 42.5132 88.689 41.2218 87.6054Z" fill="#4C4C4C"/><path d="M33.984 81.5322C32.6926 80.4486 32.5241 78.5232 33.6078 77.2318L53.7882 53.1817C54.8718 51.8903 56.7971 51.7219 58.0885 52.8055C59.3799 53.8891 59.5484 55.8144 58.4648 57.1058L38.2843 81.1559C37.2007 82.4473 35.2754 82.6158 33.984 81.5322Z" fill="#4C4C4C"/><path d="M146.674 58.8787C147.966 57.7951 149.891 57.9636 150.975 59.255L171.155 83.3051C172.239 84.5965 172.07 86.5218 170.779 87.6054C169.488 88.689 167.562 88.5206 166.479 87.2292L146.298 63.1791C145.215 61.8877 145.383 59.9624 146.674 58.8787Z" fill="#4C4C4C"/><path d="M150.342 77.9474C151.633 76.8638 151.802 74.9385 150.718 73.6471L143.737 65.3277C142.654 64.0363 140.729 63.8679 139.437 64.9515C138.146 66.0351 137.977 67.9604 139.061 69.2518L146.042 77.5712C147.125 78.8626 149.051 79.031 150.342 77.9474Z" fill="#4C4C4C"/><path d="M152.637 80.6823C151.345 81.7659 151.177 83.6912 152.261 84.9826L159.241 93.3019C160.325 94.5933 162.25 94.7618 163.542 93.6782C164.833 92.5946 165.001 90.6692 163.918 89.3778L156.937 81.0585C155.854 79.7671 153.928 79.5987 152.637 80.6823Z" fill="#4C4C4C"/><path d="M164.817 65.8018C166.108 64.7182 166.276 62.7929 165.193 61.5015L158.212 53.1822C157.128 51.8908 155.203 51.7224 153.912 52.806C152.62 53.8896 152.452 55.8149 153.535 57.1063L160.516 65.4256C161.6 66.717 163.525 66.8854 164.817 65.8018Z" fill="#4C4C4C"/><path d="M167.111 68.5367C165.82 69.6203 165.651 71.5456 166.735 72.837L173.716 81.1564C174.8 82.4478 176.725 82.6163 178.016 81.5327C179.308 80.4491 179.476 78.5237 178.392 77.2323L171.412 68.9129C170.328 67.6215 168.403 67.453 167.111 68.5367Z" fill="#4C4C4C"/><path d="M33.984 130.468C35.2754 129.384 37.2007 129.553 38.2843 130.844L58.4648 154.894C59.5484 156.186 59.3799 158.111 58.0885 159.195C56.7971 160.278 54.8718 160.11 53.7882 158.819L33.6078 134.768C32.5241 133.477 32.6926 131.552 33.984 130.468Z" fill="#4C4C4C"/><path d="M48.4591 118.322C49.7505 117.238 51.6758 117.407 52.7594 118.698L72.9399 142.748C74.0235 144.04 73.855 145.965 72.5636 147.049C71.2722 148.132 69.3469 147.964 68.2633 146.673L48.0829 122.622C46.9992 121.331 47.1677 119.406 48.4591 118.322Z" fill="#4C4C4C"/><path d="M52.1271 137.391C53.4185 136.307 53.5869 134.382 52.5033 133.09L45.5226 124.771C44.439 123.48 42.5137 123.311 41.2223 124.395C39.9309 125.478 39.7624 127.404 40.846 128.695L47.8267 137.014C48.9103 138.306 50.8357 138.474 52.1271 137.391Z" fill="#4C4C4C"/><path d="M54.4219 140.126C53.1305 141.209 52.962 143.134 54.0456 144.426L61.0265 152.745C62.1101 154.037 64.0354 154.205 65.3268 153.122C66.6182 152.038 66.7866 150.113 65.703 148.821L58.7222 140.502C57.6386 139.21 55.7133 139.042 54.4219 140.126Z" fill="#4C4C4C"/><path d="M164.817 146.199C163.526 145.115 161.6 145.284 160.517 146.575L153.536 154.894C152.452 156.186 152.621 158.111 153.912 159.195C155.204 160.278 157.129 160.11 158.213 158.819L165.193 150.499C166.277 149.208 166.108 147.283 164.817 146.199Z" fill="#4C4C4C"/><path d="M167.112 143.464C168.403 144.548 170.329 144.379 171.412 143.088L178.393 134.768C179.477 133.477 179.308 131.552 178.017 130.468C176.725 129.384 174.8 129.553 173.716 130.844L166.736 139.164C165.652 140.455 165.82 142.381 167.112 143.464Z" fill="#4C4C4C"/><path d="M157.579 140.125C156.288 139.042 154.363 139.21 153.279 140.501L146.298 148.821C145.215 150.112 145.383 152.037 146.674 153.121C147.966 154.205 149.891 154.036 150.975 152.745L157.956 144.425C159.039 143.134 158.871 141.209 157.579 140.125Z" fill="#4C4C4C"/><path d="M159.874 137.39C161.165 138.474 163.091 138.305 164.174 137.014L171.155 128.695C172.239 127.403 172.07 125.478 170.779 124.394C169.488 123.311 167.562 123.479 166.479 124.771L159.498 133.09C158.414 134.381 158.583 136.307 159.874 137.39Z" fill="#4C4C4C"/><path d="M150.342 134.052C149.051 132.969 147.125 133.137 146.042 134.429L139.061 142.748C137.977 144.039 138.146 145.965 139.437 147.048C140.729 148.132 142.654 147.963 143.737 146.672L150.718 138.353C151.802 137.061 151.633 135.136 150.342 134.052Z" fill="#4C4C4C"/><path d="M152.637 131.318C153.928 132.401 155.853 132.233 156.937 130.941L163.918 122.622C165.001 121.331 164.833 119.405 163.542 118.322C162.25 117.238 160.325 117.406 159.241 118.698L152.261 127.017C151.177 128.309 151.345 130.234 152.637 131.318Z" fill="#4C4C4C"/></svg>